<svg xmlns="http://www.w3.org/2000/svg" viewBox="238 115 912 996" role="img" aria-label="Varro logo">
<g fill="#000" shape-rendering="crispEdges">
  <rect x="1003" y="123" width="28" height="27"></rect>
  <rect x="972" y="155" width="27" height="28"></rect>
  <rect x="1034" y="155" width="28" height="28"></rect>
  <rect x="1003" y="187" width="27" height="28"></rect>
  <rect x="760" y="191" width="28" height="28"></rect>
  <rect x="620" y="257" width="29" height="28"></rect>
  <rect x="856" y="257" width="28" height="26"></rect>
  <rect x="826" y="259" width="28" height="26"></rect>
  <rect x="859" y="288" width="27" height="28"></rect>
  <rect x="691" y="292" width="29" height="28"></rect>
  <rect x="829" y="316" width="28" height="28"></rect>
  <rect x="522" y="325" width="29" height="29"></rect>
  <rect x="966" y="336" width="28" height="28"></rect>
  <rect x="279" y="360" width="30" height="29"></rect>
  <rect x="314" y="360" width="29" height="29"></rect>
  <rect x="348" y="360" width="29" height="29"></rect>
  <rect x="484" y="360" width="29" height="29"></rect>
  <rect x="654" y="360" width="29" height="29"></rect>
  <rect x="1079" y="360" width="28" height="29"></rect>
  <rect x="921" y="365" width="28" height="28"></rect>
  <rect x="788" y="390" width="29" height="29"></rect>
  <rect x="246" y="394" width="29" height="29"></rect>
  <rect x="279" y="394" width="30" height="29"></rect>
  <rect x="314" y="394" width="29" height="29"></rect>
  <rect x="348" y="394" width="29" height="29"></rect>
  <rect x="382" y="394" width="29" height="29"></rect>
  <rect x="518" y="394" width="29" height="28"></rect>
  <rect x="552" y="394" width="29" height="28"></rect>
  <rect x="585" y="394" width="29" height="28"></rect>
  <rect x="755" y="394" width="29" height="28"></rect>
  <rect x="1113" y="394" width="29" height="29"></rect>
  <rect x="893" y="396" width="28" height="27"></rect>
  <rect x="246" y="428" width="29" height="29"></rect>
  <rect x="279" y="428" width="30" height="29"></rect>
  <rect x="314" y="428" width="29" height="29"></rect>
  <rect x="348" y="428" width="29" height="29"></rect>
  <rect x="382" y="428" width="29" height="29"></rect>
  <rect x="416" y="428" width="29" height="29"></rect>
  <rect x="450" y="428" width="30" height="29"></rect>
  <rect x="620" y="428" width="29" height="29"></rect>
  <rect x="1079" y="428" width="28" height="29"></rect>
  <rect x="823" y="452" width="28" height="28"></rect>
  <rect x="279" y="462" width="30" height="29"></rect>
  <rect x="314" y="462" width="29" height="29"></rect>
  <rect x="348" y="462" width="29" height="29"></rect>
  <rect x="382" y="462" width="29" height="29"></rect>
  <rect x="416" y="462" width="29" height="29"></rect>
  <rect x="450" y="462" width="30" height="29"></rect>
  <rect x="484" y="462" width="29" height="29"></rect>
  <rect x="518" y="462" width="29" height="29"></rect>
  <rect x="552" y="462" width="29" height="29"></rect>
  <rect x="689" y="462" width="28" height="29"></rect>
  <rect x="314" y="496" width="29" height="29"></rect>
  <rect x="348" y="496" width="29" height="29"></rect>
  <rect x="416" y="496" width="30" height="29"></rect>
  <rect x="450" y="496" width="30" height="29"></rect>
  <rect x="484" y="496" width="29" height="29"></rect>
  <rect x="518" y="496" width="29" height="29"></rect>
  <rect x="552" y="496" width="29" height="29"></rect>
  <rect x="586" y="496" width="29" height="29"></rect>
  <rect x="655" y="498" width="29" height="29"></rect>
  <rect x="759" y="498" width="29" height="29"></rect>
  <rect x="928" y="527" width="29" height="28"></rect>
  <rect x="314" y="530" width="29" height="29"></rect>
  <rect x="416" y="530" width="30" height="29"></rect>
  <rect x="450" y="530" width="30" height="29"></rect>
  <rect x="484" y="530" width="29" height="29"></rect>
  <rect x="518" y="530" width="29" height="29"></rect>
  <rect x="552" y="530" width="29" height="29"></rect>
  <rect x="586" y="530" width="29" height="29"></rect>
  <rect x="620" y="530" width="29" height="29"></rect>
  <rect x="280" y="531" width="29" height="29"></rect>
  <rect x="724" y="531" width="29" height="29"></rect>
  <rect x="865" y="531" width="28" height="28"></rect>
  <rect x="280" y="564" width="29" height="30"></rect>
  <rect x="382" y="564" width="29" height="30"></rect>
  <rect x="416" y="564" width="30" height="30"></rect>
  <rect x="450" y="564" width="30" height="30"></rect>
  <rect x="484" y="564" width="29" height="30"></rect>
  <rect x="518" y="564" width="29" height="30"></rect>
  <rect x="552" y="564" width="29" height="30"></rect>
  <rect x="620" y="564" width="29" height="30"></rect>
  <rect x="654" y="564" width="29" height="30"></rect>
  <rect x="831" y="564" width="28" height="29"></rect>
  <rect x="280" y="598" width="29" height="30"></rect>
  <rect x="314" y="598" width="29" height="30"></rect>
  <rect x="382" y="598" width="29" height="29"></rect>
  <rect x="416" y="598" width="30" height="29"></rect>
  <rect x="450" y="598" width="30" height="30"></rect>
  <rect x="518" y="598" width="29" height="30"></rect>
  <rect x="552" y="598" width="29" height="30"></rect>
  <rect x="586" y="598" width="29" height="30"></rect>
  <rect x="620" y="598" width="29" height="29"></rect>
  <rect x="689" y="599" width="29" height="28"></rect>
  <rect x="759" y="599" width="29" height="29"></rect>
  <rect x="1006" y="599" width="29" height="28"></rect>
  <rect x="314" y="632" width="29" height="29"></rect>
  <rect x="348" y="632" width="29" height="30"></rect>
  <rect x="382" y="632" width="29" height="30"></rect>
  <rect x="416" y="632" width="30" height="29"></rect>
  <rect x="518" y="632" width="29" height="29"></rect>
  <rect x="552" y="632" width="29" height="29"></rect>
  <rect x="586" y="632" width="29" height="30"></rect>
  <rect x="654" y="632" width="30" height="29"></rect>
  <rect x="875" y="633" width="29" height="28"></rect>
  <rect x="314" y="666" width="29" height="29"></rect>
  <rect x="348" y="666" width="29" height="29"></rect>
  <rect x="382" y="666" width="30" height="29"></rect>
  <rect x="552" y="666" width="29" height="29"></rect>
  <rect x="586" y="666" width="29" height="29"></rect>
  <rect x="620" y="666" width="29" height="29"></rect>
  <rect x="654" y="666" width="30" height="29"></rect>
  <rect x="724" y="666" width="29" height="29"></rect>
  <rect x="875" y="666" width="29" height="29"></rect>
  <rect x="348" y="700" width="29" height="29"></rect>
  <rect x="416" y="700" width="30" height="29"></rect>
  <rect x="450" y="700" width="30" height="29"></rect>
  <rect x="484" y="700" width="29" height="29"></rect>
  <rect x="518" y="700" width="29" height="29"></rect>
  <rect x="552" y="700" width="29" height="29"></rect>
  <rect x="586" y="700" width="29" height="29"></rect>
  <rect x="843" y="700" width="29" height="29"></rect>
  <rect x="906" y="700" width="28" height="29"></rect>
  <rect x="688" y="701" width="29" height="28"></rect>
  <rect x="759" y="701" width="28" height="29"></rect>
  <rect x="280" y="734" width="29" height="29"></rect>
  <rect x="314" y="734" width="29" height="29"></rect>
  <rect x="348" y="734" width="29" height="29"></rect>
  <rect x="382" y="734" width="30" height="29"></rect>
  <rect x="416" y="734" width="30" height="29"></rect>
  <rect x="450" y="734" width="30" height="29"></rect>
  <rect x="484" y="734" width="29" height="29"></rect>
  <rect x="518" y="734" width="29" height="29"></rect>
  <rect x="552" y="734" width="29" height="29"></rect>
  <rect x="586" y="734" width="29" height="29"></rect>
  <rect x="620" y="734" width="29" height="29"></rect>
  <rect x="654" y="734" width="29" height="29"></rect>
  <rect x="688" y="734" width="29" height="29"></rect>
  <rect x="246" y="768" width="29" height="29"></rect>
  <rect x="280" y="768" width="29" height="29"></rect>
  <rect x="314" y="768" width="29" height="29"></rect>
  <rect x="348" y="768" width="29" height="29"></rect>
  <rect x="382" y="768" width="30" height="29"></rect>
  <rect x="416" y="768" width="30" height="29"></rect>
  <rect x="450" y="768" width="30" height="29"></rect>
  <rect x="485" y="768" width="28" height="29"></rect>
  <rect x="518" y="768" width="29" height="29"></rect>
  <rect x="552" y="768" width="29" height="29"></rect>
  <rect x="586" y="768" width="29" height="29"></rect>
  <rect x="620" y="768" width="29" height="29"></rect>
  <rect x="654" y="768" width="29" height="29"></rect>
  <rect x="817" y="780" width="28" height="28"></rect>
  <rect x="246" y="802" width="29" height="29"></rect>
  <rect x="280" y="802" width="29" height="29"></rect>
  <rect x="314" y="802" width="29" height="29"></rect>
  <rect x="348" y="802" width="29" height="29"></rect>
  <rect x="417" y="802" width="29" height="29"></rect>
  <rect x="450" y="802" width="30" height="29"></rect>
  <rect x="484" y="802" width="29" height="29"></rect>
  <rect x="518" y="802" width="29" height="29"></rect>
  <rect x="552" y="802" width="29" height="29"></rect>
  <rect x="586" y="802" width="29" height="29"></rect>
  <rect x="620" y="802" width="29" height="29"></rect>
  <rect x="654" y="802" width="29" height="29"></rect>
  <rect x="688" y="802" width="30" height="29"></rect>
  <rect x="723" y="802" width="29" height="29"></rect>
  <rect x="793" y="815" width="28" height="28"></rect>
  <rect x="280" y="836" width="29" height="29"></rect>
  <rect x="314" y="836" width="29" height="29"></rect>
  <rect x="348" y="836" width="29" height="29"></rect>
  <rect x="382" y="836" width="30" height="29"></rect>
  <rect x="485" y="836" width="28" height="29"></rect>
  <rect x="518" y="836" width="29" height="29"></rect>
  <rect x="552" y="836" width="29" height="29"></rect>
  <rect x="586" y="836" width="29" height="29"></rect>
  <rect x="620" y="836" width="29" height="29"></rect>
  <rect x="654" y="836" width="29" height="29"></rect>
  <rect x="688" y="836" width="30" height="29"></rect>
  <rect x="723" y="836" width="29" height="29"></rect>
  <rect x="824" y="845" width="28" height="28"></rect>
  <rect x="315" y="870" width="29" height="29"></rect>
  <rect x="348" y="870" width="29" height="29"></rect>
  <rect x="382" y="870" width="30" height="29"></rect>
  <rect x="416" y="870" width="30" height="29"></rect>
  <rect x="485" y="870" width="28" height="29"></rect>
  <rect x="518" y="870" width="29" height="29"></rect>
  <rect x="552" y="870" width="29" height="29"></rect>
  <rect x="586" y="870" width="29" height="29"></rect>
  <rect x="620" y="870" width="29" height="29"></rect>
  <rect x="654" y="870" width="29" height="29"></rect>
  <rect x="688" y="870" width="30" height="29"></rect>
  <rect x="723" y="870" width="29" height="29"></rect>
  <rect x="349" y="904" width="28" height="29"></rect>
  <rect x="383" y="904" width="29" height="29"></rect>
  <rect x="416" y="904" width="30" height="29"></rect>
  <rect x="518" y="904" width="29" height="29"></rect>
  <rect x="552" y="904" width="29" height="29"></rect>
  <rect x="586" y="904" width="29" height="29"></rect>
  <rect x="620" y="904" width="29" height="29"></rect>
  <rect x="654" y="904" width="29" height="29"></rect>
  <rect x="688" y="904" width="30" height="29"></rect>
  <rect x="723" y="904" width="29" height="29"></rect>
  <rect x="757" y="904" width="29" height="29"></rect>
  <rect x="383" y="938" width="29" height="29"></rect>
  <rect x="416" y="938" width="30" height="29"></rect>
  <rect x="450" y="938" width="30" height="29"></rect>
  <rect x="518" y="938" width="29" height="29"></rect>
  <rect x="552" y="938" width="29" height="29"></rect>
  <rect x="586" y="938" width="29" height="29"></rect>
  <rect x="620" y="938" width="29" height="29"></rect>
  <rect x="654" y="938" width="29" height="29"></rect>
  <rect x="688" y="938" width="30" height="29"></rect>
  <rect x="723" y="938" width="29" height="29"></rect>
  <rect x="757" y="938" width="29" height="29"></rect>
  <rect x="417" y="972" width="29" height="29"></rect>
  <rect x="450" y="972" width="30" height="29"></rect>
  <rect x="484" y="972" width="29" height="29"></rect>
  <rect x="518" y="972" width="29" height="29"></rect>
  <rect x="552" y="972" width="29" height="29"></rect>
  <rect x="586" y="972" width="29" height="29"></rect>
  <rect x="620" y="972" width="29" height="29"></rect>
  <rect x="654" y="972" width="29" height="29"></rect>
  <rect x="688" y="972" width="30" height="29"></rect>
  <rect x="723" y="972" width="29" height="29"></rect>
  <rect x="757" y="972" width="29" height="29"></rect>
  <rect x="450" y="1006" width="30" height="29"></rect>
  <rect x="484" y="1006" width="29" height="29"></rect>
  <rect x="518" y="1006" width="29" height="29"></rect>
  <rect x="552" y="1006" width="29" height="29"></rect>
  <rect x="586" y="1006" width="29" height="29"></rect>
  <rect x="620" y="1006" width="29" height="29"></rect>
  <rect x="654" y="1006" width="29" height="29"></rect>
  <rect x="688" y="1006" width="30" height="29"></rect>
  <rect x="723" y="1006" width="29" height="29"></rect>
  <rect x="757" y="1006" width="29" height="29"></rect>
  <rect x="791" y="1006" width="29" height="29"></rect>
  <rect x="416" y="1040" width="30" height="29"></rect>
  <rect x="450" y="1040" width="30" height="29"></rect>
  <rect x="518" y="1040" width="29" height="29"></rect>
  <rect x="552" y="1040" width="29" height="29"></rect>
  <rect x="586" y="1040" width="29" height="29"></rect>
  <rect x="620" y="1040" width="29" height="29"></rect>
  <rect x="654" y="1040" width="29" height="29"></rect>
  <rect x="688" y="1040" width="30" height="29"></rect>
  <rect x="723" y="1040" width="29" height="29"></rect>
  <rect x="757" y="1040" width="29" height="29"></rect>
  <rect x="791" y="1040" width="29" height="29"></rect>
  <rect x="382" y="1074" width="29" height="29"></rect>
  <rect x="416" y="1074" width="30" height="29"></rect>
  <rect x="450" y="1074" width="30" height="29"></rect>
  <rect x="484" y="1074" width="29" height="29"></rect>
  <rect x="518" y="1074" width="29" height="29"></rect>
  <rect x="552" y="1074" width="29" height="29"></rect>
  <rect x="586" y="1074" width="29" height="29"></rect>
  <rect x="620" y="1074" width="29" height="29"></rect>
  <rect x="654" y="1074" width="29" height="29"></rect>
  <rect x="688" y="1074" width="30" height="29"></rect>
  <rect x="723" y="1074" width="29" height="29"></rect>
  <rect x="757" y="1074" width="29" height="29"></rect>
  <rect x="791" y="1074" width="29" height="29"></rect>
</g>
</svg>